<svg xmlns="http://www.w3.org/2000/svg" width="220" height="95" viewBox="0 0 220 95" fill="none"><path d="M81.2091 27.805C81.2091 27.805 82.2336 23.4848 83.2433 24.6673C84.253 25.8498 86.534 26.8348 88.5337 23.939C90.5357 21.0433 86.7216 17.523 84.216 16.3232C81.7102 15.1234 74.9708 21.2334 74.9708 21.2334C74.9708 21.2334 69.9668 26.7755 72.0034 13.2596C74.0401 -0.256408 66.1675 2.40976 64.9035 2.71834C63.6396 3.02692 66.3403 3.30588 64.1136 4.92533C61.8868 6.54478 62.778 7.69765 62.778 7.69765C62.778 7.69765 65.1232 22.2579 64.232 30.0638C63.3409 37.8698 64.2271 38.9461 64.9011 40.3755C65.2812 41.1802 64.5727 43.3181 64.0271 45.3967C62.5459 39.8299 59.1861 33.9001 58.7788 33.1966C58.954 33.4928 59.586 34.4408 59.3589 32.5004C59.0972 30.2539 55.6065 29.6195 51.6344 22.7269C50.4396 20.6508 49.5089 19.4732 48.8251 18.856C49.0102 17.2613 47.4871 16.6145 47.4871 16.6145L46.5267 17.3131V16.6145H45.8281L45.2183 17.4884V16.6145C45.2183 16.6145 43.1224 16.6145 41.6388 17.5748C40.1551 18.5351 38.7455 26.388 38.6912 26.9607L38.6591 27.3557C37.3063 32.0536 36.4447 36.0281 35.9485 39.3929C35.7066 39.3584 35.4375 39.3361 35.1388 39.3287C30.6285 39.2275 26.7872 41.8912 26.7872 41.8912C26.7872 41.8912 27.3476 51.0673 23.4891 54.0963C19.6306 57.1254 15.3524 51.7141 15.614 50.0502C15.8757 48.3863 14.2168 49.8008 14.2168 49.8008C14.2168 49.8008 13.607 46.0559 14.5649 44.8067C14.5649 44.8067 13.6045 46.2213 13.4293 44.308C13.4293 44.308 11.8888 27.9432 18.5937 18.935C25.2986 9.92933 23.4842 28.0815 23.4842 28.0815C23.4842 28.0815 22.0696 34.7345 26.6959 34.1519C31.3222 33.5693 33.5563 33.4755 32.9194 29.4442C32.2825 25.4104 35.1684 26.2028 33.6748 22.0826C32.1813 17.9624 31.89 16.5478 31.89 16.5478C31.89 16.5478 31.9468 18.0241 31.3642 16.5478C30.784 15.0716 28.8091 9.0258 26.9576 7.5125C25.1061 5.9992 22.5214 3.54781 20.0305 4.8809C17.5371 6.21398 14.8117 7.20638 15.0808 8.10992C15.3499 9.01098 13.4589 8.10992 13.4589 8.10992C13.4589 8.10992 6.01091 14.5062 6.01091 21.6629C6.01091 21.6629 5.40115 21.6629 5.0506 22.4949C4.70992 23.3293 -3.93043 38.7289 2.17953 52.2127C2.17953 52.2127 2.70289 51.5462 2.87817 52.8793C3.05344 54.2124 3.22625 55.1282 3.05344 55.3751C2.87817 55.6244 4.01376 54.8764 4.18903 55.3751C4.36431 55.8738 3.75208 57.7895 4.62599 58.7053C5.4999 59.6212 7.59333 61.9516 8.9906 61.8677C10.3879 61.7838 11.521 61.8702 11.521 61.8702C11.521 61.8702 8.64005 65.983 11.2593 66.9211C13.8786 67.8592 23.0349 70.1057 24.3062 71.3548C25.5751 72.604 13.7922 68.2764 13.0935 69.1923C13.0935 69.1923 5.84798 72.6879 8.9906 77.8499C12.1332 83.0119 22.83 83.8981 25.2937 79.6668C27.7574 75.4355 34.5586 72.3744 30.5767 68.5776L26.5947 64.7807C26.5947 64.7807 27.3748 63.2378 26.0812 62.2602L29.9866 58.0289L28.9794 58.3696C28.9794 58.3696 33.1293 54.3432 35.593 49.4651C36.4299 56.528 39.8934 57.6833 40.4242 57.8956C41.2981 58.2437 41.1228 58.9423 41.6462 60.0779C42.1695 61.2135 43.5668 60.5149 43.5668 60.5149C43.5668 60.5149 42.8682 60.9518 44.1766 61.6505C45.485 62.3491 52.1183 62.1738 55.6979 61.2135C57.816 60.6457 59.9489 59.7076 61.6696 57.7376C61.4425 59.1966 61.5733 60.4729 62.5262 61.2061C65.4738 63.4723 76.0891 59.9471 71.4159 52.6522C71.4159 52.6522 72.2133 41.5999 73.5686 39.1288C74.9239 36.6576 86.0847 52.2053 87.0204 53.5804L87.3314 53.0644C87.3314 53.0644 87.3289 54.1457 88.3312 55.58C89.3335 57.0168 89.0274 57.1846 89.0274 57.1846C89.0274 57.1846 89.7186 56.7822 89.7038 57.3574C89.689 57.9302 90.395 58.0265 90.395 58.0265C90.395 58.0265 89.6668 58.2091 89.9951 58.4165C90.3234 58.6263 92.212 61.0654 93.1155 60.9444C93.1155 60.9444 92.1675 61.1024 92.7032 61.3295C93.2389 61.5567 94.6634 61.9714 94.2585 62.596C94.2585 62.596 93.7574 62.0035 93.7746 62.3071C93.7919 62.6108 93.9277 63.0058 95.4459 64.1735C96.9666 65.3411 96.2384 65.7731 96.2384 65.7731C96.2384 65.7731 98.3886 65.8423 98.5096 66.6322C98.5096 66.6322 96.4235 67.4864 100.223 67.9579C104.02 68.4294 107.101 68.4763 103.383 59.9915C98.4528 48.7418 97.058 59.6089 81.2091 27.805ZM50.721 23.7712C50.247 22.9269 49.104 22.053 48.2721 21.4926C48.3684 21.0482 48.4523 20.6532 48.5264 20.3175C49.578 21.5913 50.721 23.7712 50.721 23.7712ZM47.7858 23.7983L48.3634 25.0796C48.3634 25.0796 47.9956 25.0499 47.5315 25.045C47.6179 24.613 47.7043 24.1958 47.7858 23.7983ZM48.0203 22.6726C48.0746 22.4159 48.1264 22.1715 48.1758 21.9394C48.6844 22.6529 49.0621 23.3342 49.0621 23.3342C48.8251 23.0577 48.4054 22.8331 48.0203 22.6726ZM47.492 54.5827C42.5423 54.7061 45.0924 37.6772 47.1217 27.131C49.741 30.6563 54.6487 41.9258 54.6487 41.9258C54.6487 41.9258 53.8834 42.6639 54.4734 42.8861C55.0634 43.1083 55.4337 44.4562 55.0832 45.1548C54.7326 45.8534 56.4804 47.2507 56.8285 50.1292C57.1766 53.0076 54.4734 54.4074 47.492 54.5827Z" fill="white"></path><path d="M180.603 16.4294C185.101 19.1227 190.569 18.5969 190.132 15.1284C189.695 11.6599 187.305 11.413 186.7 10.1343C186.095 8.85795 187.251 6.89289 184.283 6.13501C184.283 6.13501 185.362 7.03114 183.585 7.75199C181.807 8.47037 176.105 13.7385 180.603 16.4294Z" fill="white"></path><path d="M216.919 45.1746C211.681 41.1408 197.431 36.4232 199.888 33.8434C199.888 33.8434 198.905 31.5031 199.986 30.9353C201.068 30.3675 202.105 29.0962 201.658 28.6987C201.208 28.3013 204.166 23.354 205.652 24.1786C207.138 25.0031 208.192 24.9266 208.02 25.8326C208.02 25.8326 206.798 31.5105 208.02 32.0857C208.02 32.0857 204.988 35.9862 208.861 37.2033C212.735 38.4228 219.63 36.6947 217.795 32.2487C215.964 27.8051 217.736 15.6395 207.859 16.3751C197.982 17.1083 201.184 18.2143 201.184 18.2143C201.184 18.2143 192.803 23.8182 192.6 26.9632C192.524 28.1285 191.553 29.1307 190.756 30.3404C189.154 23.9416 186.599 20.3842 185.742 19.7103C184.372 18.6315 182.15 21.5914 180.992 21.8778C179.835 22.1641 174.08 21.9222 173.493 29.8516C172.905 37.7785 182.392 30.8539 182.187 31.8734C181.982 32.8955 184.007 32.7547 182.187 34.668L182.733 36.2751C182.75 36.7342 183.604 36.3936 183.441 38.0476C183.281 39.7016 185.377 43.5873 185.377 43.5873C184.974 77.8993 181.894 72.8756 181.18 80.958C180.467 89.0405 179.566 85.7546 178.294 85.3399C177.023 84.9276 180.072 84.3352 177.796 83.8982C175.519 83.4613 174.959 80.484 174.959 80.484C167.689 73.8927 170.525 61.9418 170.323 60.789C170.303 60.668 170.269 60.5915 170.227 60.547C171.604 60.6532 173.493 60.7248 173.619 60.3125C173.816 59.6608 175.428 60.7199 174.816 60.3125C174.206 59.9052 175.164 59.4979 174.816 59.0091C174.468 58.5203 175.253 58.4388 175.253 58.4388H174.729C173.944 58.0315 174.643 51.8376 174.381 50.1712C174.12 48.5049 174.468 45.5301 174.468 45.5301C174.468 45.5301 174.729 52.2449 175.603 43.6589C176.477 35.0753 168.358 21.8408 165.39 18.6636C162.423 15.4839 141.825 21.3544 143.481 29.7479C145.14 38.1439 154.489 28.8789 154.489 28.8789C160.957 24.5859 160.969 29.2863 160.969 29.2863C168.94 37.3835 163.887 42.706 163.887 42.706C163.517 41.6469 160.939 40.9211 160.626 41.1976C160.312 41.4741 159.283 41.5654 157.622 40.6471C155.963 39.7287 156.402 41.6469 155.187 42.0937C154.007 42.5282 143.2 42.3949 144.007 53.6817C143.837 53.5459 143.664 53.4052 143.481 53.262C138.768 49.596 142.419 35.1716 141.948 33.0436C141.474 30.9181 141.588 31.9993 142.143 31.4587C142.698 30.9181 140.914 30.4539 141.649 29.9577C141.649 29.9577 145.819 10.3466 144.209 5.71045C144.209 5.71045 145.389 4.21691 144.799 2.71596C144.209 1.215 146.1 1.34337 145.054 0.550931C144.007 -0.241512 144.686 0.733613 143.474 0.550931C142.261 0.368249 141.173 -0.372352 140.864 0.234941C140.558 0.842234 139.492 1.49643 138.679 1.76058C137.867 2.02473 134.767 6.55474 134.411 17.4712C134.056 28.3877 134.404 28.8246 133.271 27.7779C132.135 26.7312 127.686 13.8743 125.766 12.6647C125.766 12.6647 125.028 14.0743 124.174 12.7659C123.319 11.4575 119.915 3.25166 116.511 2.8147C113.106 2.37775 113.282 4.64646 113.282 4.64646L112.546 4.20456C112.546 4.20456 110.633 5.78204 109.557 7.96435C108.48 10.1467 104.972 13.2868 106.071 15.0766C107.169 16.8664 108.537 17.7403 109.557 17.7403C110.576 17.7403 110.151 39.5609 111.635 47.9395C111.635 47.9395 113.859 52.0523 111.391 56.728C110.142 59.0955 108.744 64.5241 113.02 64.5241C117.296 64.5241 124.018 65.3091 122.621 59.5497C122.621 59.5497 122.211 58.308 122.808 57.6192C123.406 56.9304 122.796 56.059 122.097 54.9234C121.399 53.7878 122.359 52.9164 122.011 51.8697C121.663 50.823 120.09 31.1822 118.52 24.3761C116.95 17.5675 114.652 15.6469 115.931 15.474C115.931 15.474 124.761 30.138 124.694 32.4067C124.628 34.6754 124.541 33.6262 125.415 34.5445C126.289 35.4629 127.247 36.5096 127.336 37.4699C127.425 38.4302 128.928 42.9874 129.693 42.0962L130.392 41.3976L130.044 42.5776C130.108 42.5356 130.212 42.5307 130.392 42.6196C130.915 42.8812 130.392 43.5799 130.392 43.5799C130.392 43.5799 134.32 59.5522 135.28 60.5125C136.24 61.4728 134.932 63.6279 141.39 62.8997C141.4 62.8997 141.405 62.8972 141.415 62.8972C141.4 62.8997 141.39 62.8997 141.39 62.8997C141.39 62.8997 147.307 64.7981 148.021 60.5125C153.412 63.5588 162.801 62.0159 166.859 61.0112C166.546 61.8085 165.943 63.5934 164.803 67.5679C162.618 75.1838 172.31 86.9964 172.243 88.5739C172.177 90.1489 174.892 94.6048 182.876 94.1753C190.86 93.7482 189.149 78.5313 189.149 78.5313C189.927 78.0845 190.391 78.1511 190.391 78.1511C189.26 77.4895 190.714 75.8503 190.714 75.8503C190.312 75.8652 190.633 74.2654 190.317 73.5767C189.998 72.8879 191.037 72.8361 191.037 72.8361C190.714 72.646 190.618 71.2611 190.956 70.792C191.294 70.323 191.924 68.395 191.603 67.8148C191.279 67.2371 191.129 65.6103 191.171 64.5932C191.205 63.8106 191.24 61.8554 191.613 53.889C191.788 54.1507 192.064 54.4099 192.494 54.6642C194.444 55.8146 197.12 57.1082 198.342 57.0267C199.564 56.9453 196.859 58.3425 197.905 58.0142C198.952 57.6859 202.82 59.5571 203.912 59.7176C205 59.878 208.38 62.7861 211.434 62.2924C214.487 61.7987 219.997 60.5372 219.514 56.2318C219.015 51.9215 222.158 49.2084 216.919 45.1746ZM143.871 62.6133C143.827 62.6183 143.78 62.6232 143.73 62.6306C143.785 62.6232 143.829 62.6183 143.871 62.6133ZM143.424 62.6652C143.301 62.68 143.168 62.6948 143.032 62.7096C143.177 62.6923 143.308 62.6775 143.424 62.6652ZM141.585 62.8725C141.551 62.8775 141.521 62.8799 141.494 62.8824C141.526 62.8799 141.555 62.875 141.585 62.8725ZM142.689 62.7491C142.439 62.7763 142.197 62.8034 141.99 62.8281C142.249 62.7985 142.479 62.7713 142.689 62.7491ZM141.871 62.8404C141.807 62.8479 141.75 62.8553 141.696 62.8602C141.753 62.8528 141.815 62.8454 141.871 62.8404ZM144.133 62.5837C144.296 62.5664 144.273 62.5689 144.133 62.5837V62.5837ZM163.598 54.2766C163.774 55.7356 160.194 56.1331 154.259 55.1728C148.325 54.2124 156.392 49.364 156.617 49.4997C157.925 50.2848 160.893 48.89 160.893 48.89L161.33 50.3737L161.766 49.4997L162.028 50.1095L163.164 49.9342C164.907 50.6353 163.423 52.8176 163.598 54.2766ZM168.908 61.3123C168.99 60.2706 168.41 60.3693 167.933 61.0679C167.667 61.4605 167.462 61.1914 167.336 60.8828C168.158 60.6655 168.681 60.4853 168.79 60.4088C168.79 60.4088 169.308 60.4705 170.007 60.5298C169.56 60.7544 168.847 62.0974 168.908 61.3123ZM192.042 51.0155C191.946 51.292 191.815 51.5685 191.694 51.8475C191.711 51.4821 191.729 51.1068 191.748 50.7193C191.99 50.781 192.259 50.4033 192.042 51.0155ZM191.958 46.4707C191.983 45.9646 192.01 45.4462 192.037 44.9105C192.153 42.6146 192.124 40.4767 191.995 38.4919C192.417 39.0153 192.904 39.5658 193.469 40.1509C193.469 40.1509 194.686 39.4177 195.187 40.6471C195.318 40.968 196.301 41.4025 197.75 41.9728C195.192 42.8343 192.835 44.4291 191.958 46.4707ZM200.51 50.5218C199.527 48.8875 203.292 46.8632 205.01 44.9524C208.089 46.409 211.103 48.2383 212.73 50.5218C216.833 56.2812 201.993 52.9904 200.51 50.5218Z" fill="white"></path><path d="M129.946 42.8764L130.035 42.5728C129.911 42.6518 129.946 42.8764 129.946 42.8764Z" fill="white"></path><path d="M42.3223 80.8025V70.9871H46.5239C46.956 70.9871 47.3559 71.0759 47.7188 71.2562C48.0817 71.4364 48.3952 71.6758 48.6593 71.9745C48.921 72.2732 49.1259 72.6115 49.274 72.9842C49.4222 73.357 49.4962 73.7372 49.4962 74.1247C49.4962 74.4654 49.4469 74.7962 49.3506 75.1122C49.2543 75.4307 49.116 75.7195 48.9358 75.9763C48.7556 76.2355 48.5384 76.4552 48.2866 76.6403C48.0323 76.8255 47.7484 76.9588 47.4374 77.0402L49.8147 80.8H48.4051L46.1635 77.2772H43.564V80.8025H42.3223ZM43.5665 76.1713H46.5388C46.7955 76.1713 47.03 76.117 47.2374 76.0059C47.4448 75.8948 47.6225 75.7467 47.7706 75.5566C47.9187 75.369 48.0323 75.1492 48.1162 74.8999C48.2002 74.6506 48.2397 74.3938 48.2397 74.1247C48.2397 73.8483 48.1903 73.589 48.094 73.3446C47.9977 73.1002 47.8669 72.883 47.7064 72.6954C47.546 72.5078 47.3559 72.3596 47.1386 72.2535C46.9214 72.1473 46.6943 72.0955 46.4548 72.0955H43.5665V76.1713Z" fill="white"></path><path d="M54.17 80.9407C53.6269 80.9407 53.1282 80.842 52.6764 80.6445C52.2247 80.447 51.8371 80.1779 51.5162 79.8348C51.1928 79.4941 50.9434 79.0942 50.7632 78.6399C50.583 78.1857 50.4941 77.7018 50.4941 77.1958C50.4941 76.6897 50.583 76.2108 50.7632 75.759C50.9434 75.3072 51.1952 74.9122 51.5236 74.5691C51.8494 74.2284 52.2395 73.9593 52.6913 73.7594C53.143 73.5619 53.6392 73.4631 54.1848 73.4631C54.7279 73.4631 55.2241 73.5644 55.6709 73.7668C56.1178 73.9692 56.498 74.2383 56.8115 74.5765C57.125 74.9122 57.3669 75.3048 57.5373 75.7516C57.7076 76.1984 57.794 76.6625 57.794 77.1415C57.794 77.2427 57.7915 77.334 57.7866 77.418C57.7817 77.5019 57.7743 77.5661 57.7668 77.6105H51.7803C51.8075 77.9709 51.8914 78.2968 52.0297 78.593C52.1679 78.8893 52.3481 79.1411 52.5678 79.3534C52.79 79.5657 53.0393 79.7311 53.3208 79.8521C53.6022 79.973 53.8984 80.0323 54.212 80.0323C54.4341 80.0323 54.6489 80.0026 54.8612 79.9434C55.0735 79.8841 55.271 79.8027 55.4562 79.7015C55.6413 79.6003 55.8043 79.4744 55.9474 79.3287C56.0906 79.1806 56.1992 79.0152 56.2733 78.83L57.325 79.1213C57.204 79.3879 57.0411 79.6323 56.8337 79.8545C56.6263 80.0767 56.3869 80.2668 56.1153 80.4273C55.8438 80.5877 55.5426 80.7161 55.2093 80.8074C54.8736 80.8963 54.5279 80.9407 54.17 80.9407ZM56.6436 76.7119C56.6164 76.3712 56.53 76.0552 56.3869 75.7639C56.2437 75.4726 56.0635 75.2282 55.8487 75.0233C55.6314 74.8209 55.3796 74.6629 55.0957 74.5469C54.8094 74.4309 54.5057 74.3741 54.1823 74.3741C53.8589 74.3741 53.5553 74.4309 53.2689 74.5469C52.9826 74.6629 52.7308 74.8234 52.516 75.0307C52.2987 75.2381 52.1235 75.485 51.9902 75.7713C51.8569 76.0577 51.7754 76.3712 51.7482 76.7119H56.6436Z" fill="white"></path><path d="M61.6764 80.9405C61.0963 80.9405 60.5236 80.8517 59.9632 80.6715C59.4003 80.4913 58.9165 80.232 58.5116 79.8914L59.0374 79.0767C59.462 79.4001 59.8842 79.642 60.3088 79.8025C60.7334 79.963 61.1802 80.0444 61.6493 80.0444C62.1751 80.0444 62.5923 79.9407 62.9009 79.7334C63.2095 79.526 63.365 79.2347 63.365 78.8545C63.365 78.6793 63.323 78.5287 63.2416 78.4052C63.1576 78.2818 63.0342 78.1732 62.8688 78.0794C62.7034 77.988 62.4911 77.9041 62.2319 77.83C61.9727 77.756 61.674 77.677 61.3333 77.5955C60.8988 77.4844 60.526 77.3783 60.2125 77.277C59.899 77.1758 59.6398 77.0549 59.4373 76.9166C59.2349 76.7784 59.0868 76.613 58.9955 76.4179C58.9041 76.2254 58.8572 75.9859 58.8572 75.6996C58.8572 75.3391 58.9288 75.0207 59.072 74.7392C59.2152 74.4578 59.4102 74.2233 59.6595 74.0332C59.9089 73.8456 60.2002 73.7024 60.5384 73.6037C60.8741 73.5074 61.237 73.458 61.6246 73.458C62.1677 73.458 62.6762 73.5444 63.1453 73.7197C63.6143 73.895 64.0118 74.1246 64.3352 74.4109L63.7822 75.1441C63.4786 74.8775 63.1379 74.6775 62.7602 74.5418C62.3825 74.4084 61.9949 74.3418 61.5999 74.3418C61.158 74.3418 60.7828 74.4356 60.4742 74.6257C60.1656 74.8158 60.0101 75.117 60.0101 75.5317C60.0101 75.6971 60.0397 75.8353 60.099 75.9464C60.1582 76.0575 60.2569 76.1538 60.3952 76.2377C60.5334 76.3217 60.7112 76.3933 60.9284 76.4599C61.1457 76.5241 61.4049 76.5932 61.7085 76.6673C62.1874 76.7784 62.6047 76.8919 62.9601 77.0055C63.3156 77.1215 63.6094 77.2573 63.8439 77.4128C64.0784 77.5683 64.2537 77.7535 64.3698 77.9658C64.4858 78.1781 64.5426 78.4348 64.5426 78.741C64.5426 79.4149 64.2833 79.9481 63.7674 80.3456C63.2465 80.7431 62.5503 80.9405 61.6764 80.9405Z" fill="white"></path><path d="M69.707 80.4443C69.6329 80.4813 69.5366 80.5258 69.4157 80.5752C69.2947 80.627 69.1589 80.6764 69.0083 80.7282C68.8553 80.7801 68.6899 80.8196 68.5097 80.8516C68.3295 80.8837 68.1443 80.901 67.9493 80.901C67.5074 80.901 67.1247 80.7776 66.8014 80.5357C66.478 80.2913 66.3175 79.9111 66.3175 79.3951V74.5417H65.335V73.5888H66.3175V71.1843H67.5345V73.5888H69.1515V74.5417H67.5345V79.0199C67.5518 79.2865 67.6407 79.4815 67.7962 79.6C67.9518 79.721 68.1369 79.7802 68.3492 79.7802C68.5887 79.7802 68.8084 79.7407 69.0059 79.6617C69.2034 79.5827 69.3391 79.521 69.4132 79.4741L69.707 80.4443Z" fill="white"></path><path d="M72.6947 80.9407C72.354 80.9407 72.0355 80.884 71.7418 80.7679C71.4455 80.6519 71.1913 80.4939 70.974 80.2915C70.7568 80.089 70.5864 79.8521 70.463 79.5805C70.3396 79.3089 70.2754 79.0127 70.2754 78.6893C70.2754 78.3585 70.3494 78.0549 70.4976 77.7833C70.6457 77.5118 70.8555 77.2797 71.1271 77.0847C71.3986 76.8921 71.722 76.7391 72.0948 76.628C72.4676 76.5169 72.8749 76.4626 73.3193 76.4626C73.6698 76.4626 74.0253 76.4947 74.3833 76.5589C74.7437 76.623 75.0597 76.7119 75.3362 76.8205V76.2404C75.3362 75.6504 75.1708 75.1887 74.8375 74.8505C74.5067 74.5148 74.0352 74.3469 73.4279 74.3469C72.6996 74.3469 71.9343 74.6283 71.132 75.1912L70.7321 74.4037C71.6628 73.7767 72.5984 73.4631 73.539 73.4631C74.4869 73.4631 75.2275 73.7174 75.7583 74.2235C76.2891 74.7296 76.5532 75.4455 76.5532 76.3663V79.3114C76.5532 79.5978 76.6816 79.7434 76.9408 79.7533V80.805C76.8124 80.8222 76.7063 80.8371 76.6223 80.8469C76.5384 80.8568 76.452 80.8617 76.3607 80.8617C76.1212 80.8617 75.9286 80.7902 75.7879 80.647C75.6447 80.5038 75.5608 80.331 75.5312 80.1285L75.504 79.6175C75.1806 80.0496 74.7733 80.3804 74.2796 80.605C73.7834 80.8272 73.2551 80.9407 72.6947 80.9407ZM73.0107 80.0298C73.4427 80.0298 73.8476 79.9483 74.2203 79.7879C74.5931 79.6274 74.877 79.4126 75.0695 79.146C75.2448 78.9707 75.3312 78.7905 75.3312 78.6079V77.5438C74.7412 77.3143 74.129 77.1982 73.4921 77.1982C72.8848 77.1982 72.3886 77.3266 72.0059 77.5858C71.6233 77.845 71.4332 78.1808 71.4332 78.5955C71.4332 78.7979 71.4727 78.988 71.5517 79.1633C71.6307 79.3386 71.7393 79.4916 71.8825 79.62C72.0257 79.7484 72.1935 79.8496 72.3861 79.9237C72.5836 79.9928 72.791 80.0298 73.0107 80.0298Z" fill="white"></path><path d="M80.725 80.9406C79.9696 80.9406 79.3969 80.6863 79.0118 80.1803C78.6242 79.6742 78.4316 78.9188 78.4316 77.914V73.5864H79.6487V77.6795C79.6487 79.1533 80.1597 79.8914 81.1842 79.8914C81.6829 79.8914 82.1495 79.7334 82.5864 79.415C83.0234 79.0965 83.3492 78.662 83.5615 78.109V73.5889H84.7786V79.3113C84.7786 79.5976 84.907 79.7433 85.1662 79.7532V80.8048C85.0279 80.8221 84.9193 80.8344 84.8403 80.8394C84.7613 80.8443 84.6848 80.8468 84.6132 80.8468C84.3737 80.8468 84.1738 80.7752 84.0108 80.632C83.8504 80.4888 83.764 80.3111 83.7541 80.0988L83.7269 79.2545C83.4035 79.7976 82.9814 80.2148 82.4556 80.5061C81.9273 80.7949 81.3521 80.9406 80.725 80.9406Z" fill="white"></path><path d="M90.6246 74.6506C90.0174 74.6703 89.4792 74.8258 89.0151 75.1196C88.5485 75.4159 88.2202 75.8256 88.0276 76.349V80.8H86.8105V73.5841H87.9437V75.2579C88.193 74.7592 88.5189 74.3568 88.9262 74.0482C89.3311 73.7396 89.7656 73.5668 90.2247 73.5298C90.3161 73.5298 90.3951 73.5298 90.4592 73.5298C90.5234 73.5298 90.5777 73.5347 90.6246 73.5446V74.6506Z" fill="white"></path><path d="M93.6791 80.9407C93.3384 80.9407 93.0199 80.884 92.7261 80.7679C92.4299 80.6519 92.1756 80.4939 91.9584 80.2915C91.7412 80.089 91.5708 79.8521 91.4474 79.5805C91.3239 79.3089 91.2598 79.0127 91.2598 78.6893C91.2598 78.3585 91.3338 78.0549 91.4819 77.7833C91.6301 77.5118 91.8399 77.2797 92.1115 77.0847C92.383 76.8921 92.7064 76.7391 93.0792 76.628C93.4519 76.5169 93.8593 76.4626 94.3036 76.4626C94.6542 76.4626 95.0097 76.4947 95.3676 76.5589C95.7281 76.623 96.0441 76.7119 96.3205 76.8205V76.2404C96.3205 75.6504 96.1551 75.1887 95.8219 74.8505C95.4911 74.5148 95.0195 74.3469 94.4123 74.3469C93.684 74.3469 92.9187 74.6283 92.1164 75.1912L91.7165 74.4037C92.6472 73.7767 93.5828 73.4631 94.5233 73.4631C95.4713 73.4631 96.2119 73.7174 96.7427 74.2235C97.2734 74.7296 97.5376 75.4455 97.5376 76.3663V79.3114C97.5376 79.5978 97.666 79.7434 97.9252 79.7533V80.805C97.7968 80.8222 97.6907 80.8371 97.6067 80.8469C97.5228 80.8568 97.4364 80.8617 97.345 80.8617C97.1056 80.8617 96.913 80.7902 96.7723 80.647C96.6291 80.5038 96.5452 80.331 96.5156 80.1285L96.4884 79.6175C96.165 80.0496 95.7577 80.3804 95.264 80.605C94.7702 80.8272 94.2419 80.9407 93.6791 80.9407ZM93.9975 80.0298C94.4295 80.0298 94.8344 79.9483 95.2072 79.7879C95.5799 79.6274 95.8638 79.4126 96.0564 79.146C96.2317 78.9707 96.3181 78.7905 96.3181 78.6079V77.5438C95.7281 77.3143 95.1158 77.1982 94.4789 77.1982C93.8716 77.1982 93.3754 77.3266 92.9928 77.5858C92.6101 77.845 92.42 78.1808 92.42 78.5955C92.42 78.7979 92.4595 78.988 92.5385 79.1633C92.6175 79.3386 92.7262 79.4916 92.8693 79.62C93.0125 79.7484 93.1804 79.8496 93.3729 79.9237C93.568 79.9928 93.7753 80.0298 93.9975 80.0298Z" fill="white"></path><path d="M105.747 80.8025H104.53V76.7662C104.53 75.9911 104.412 75.4307 104.177 75.0801C103.943 74.7296 103.585 74.5543 103.106 74.5543C102.857 74.5543 102.607 74.6037 102.36 74.6999C102.111 74.7962 101.877 74.9271 101.654 75.0949C101.432 75.2628 101.24 75.4603 101.074 75.6899C100.909 75.9195 100.783 76.1737 100.701 76.4502V80.805H99.4844V73.589H100.59V75.1369C100.877 74.6308 101.289 74.2235 101.827 73.9198C102.365 73.6162 102.953 73.4631 103.59 73.4631C104.005 73.4631 104.35 73.5397 104.627 73.6903C104.903 73.8408 105.125 74.0531 105.291 74.3272C105.456 74.6012 105.575 74.9197 105.644 75.2875C105.713 75.6553 105.747 76.0577 105.747 76.4897V80.8025Z" fill="white"></path><path d="M110.517 80.8862C110.028 80.8862 109.579 80.7849 109.169 80.5825C108.759 80.3801 108.406 80.1085 108.112 79.7678C107.816 79.4272 107.589 79.0347 107.428 78.5928C107.268 78.1509 107.187 77.6892 107.187 77.2103C107.187 76.7042 107.268 76.2228 107.428 75.7661C107.589 75.3094 107.819 74.912 108.112 74.5713C108.406 74.2306 108.759 73.9615 109.169 73.7616C109.579 73.5641 110.033 73.4653 110.532 73.4653C111.139 73.4653 111.665 73.6135 112.107 73.9072C112.548 74.2035 112.921 74.5762 113.227 75.028V73.5912H114.306V80.7257C114.306 81.2416 114.21 81.6959 114.015 82.0884C113.82 82.4809 113.558 82.8093 113.227 83.0759C112.897 83.3425 112.507 83.5449 112.06 83.6832C111.613 83.8214 111.136 83.8905 110.628 83.8905C109.808 83.8905 109.142 83.7498 108.631 83.4684C108.12 83.187 107.693 82.7969 107.352 82.3007L108.058 81.6786C108.344 82.1032 108.712 82.4192 109.164 82.6315C109.616 82.8438 110.104 82.95 110.63 82.95C110.961 82.95 111.277 82.9031 111.578 82.8117C111.877 82.7204 112.139 82.5821 112.358 82.397C112.581 82.2118 112.756 81.9822 112.892 81.7058C113.025 81.4293 113.092 81.1009 113.092 80.7232V79.4519C112.953 79.674 112.79 79.874 112.6 80.0542C112.41 80.2344 112.205 80.385 111.986 80.5109C111.763 80.6344 111.529 80.7306 111.28 80.7948C111.03 80.859 110.774 80.8862 110.517 80.8862ZM110.89 79.8913C111.146 79.8913 111.396 79.8444 111.635 79.753C111.875 79.6617 112.097 79.5383 112.299 79.3877C112.502 79.2346 112.672 79.0618 112.81 78.8693C112.948 78.6767 113.04 78.4767 113.087 78.2743V76.2006C112.985 75.9513 112.855 75.7266 112.692 75.5242C112.531 75.3218 112.349 75.144 112.146 74.991C111.944 74.8379 111.724 74.7219 111.489 74.638C111.255 74.554 111.018 74.5145 110.778 74.5145C110.411 74.5145 110.08 74.5935 109.791 74.749C109.5 74.9046 109.253 75.1119 109.05 75.3711C108.848 75.6304 108.69 75.9217 108.581 76.25C108.47 76.5783 108.416 76.9067 108.416 77.2375C108.416 77.5979 108.48 77.9386 108.608 78.2595C108.737 78.5829 108.912 78.8643 109.134 79.1038C109.356 79.3432 109.616 79.5358 109.914 79.6765C110.216 79.8197 110.539 79.8913 110.89 79.8913Z" fill="white"></path><path d="M126.526 80.8024L125.504 79.7384C125.106 80.126 124.662 80.4222 124.171 80.6296C123.677 80.8369 123.151 80.9406 122.588 80.9406C122.137 80.9406 121.717 80.8715 121.329 80.7332C120.942 80.595 120.606 80.4049 120.32 80.1605C120.033 79.9161 119.811 79.6273 119.648 79.2965C119.488 78.9657 119.406 78.6003 119.406 78.2053C119.406 77.8819 119.458 77.5832 119.564 77.3067C119.67 77.0302 119.814 76.776 119.994 76.5464C120.174 76.3168 120.379 76.102 120.608 75.9045C120.838 75.707 121.082 75.5194 121.342 75.3441C121.12 75.0948 120.932 74.8702 120.774 74.6677C120.616 74.4653 120.49 74.2727 120.394 74.095C120.297 73.9148 120.226 73.7444 120.179 73.584C120.132 73.4235 120.11 73.2556 120.11 73.0804C120.11 72.7668 120.174 72.4755 120.302 72.2015C120.431 71.93 120.608 71.6954 120.836 71.4955C121.06 71.298 121.329 71.1425 121.638 71.0314C121.947 70.9203 122.28 70.866 122.64 70.866C122.971 70.866 123.282 70.9129 123.573 71.0042C123.865 71.0956 124.116 71.2313 124.334 71.4041C124.551 71.5794 124.721 71.7917 124.845 72.0411C124.968 72.2904 125.032 72.5669 125.032 72.8705C125.032 73.147 124.981 73.4062 124.874 73.6457C124.768 73.8852 124.625 74.1098 124.445 74.3172C124.265 74.5245 124.05 74.7196 123.803 74.9047C123.554 75.0899 123.292 75.2725 123.015 75.4577L125.519 78.0844C125.694 77.7536 125.83 77.3907 125.926 76.9981C126.022 76.6056 126.072 76.1884 126.072 75.7465H127.081C127.071 76.3464 126.995 76.9043 126.854 77.4203C126.711 77.9362 126.506 78.4078 126.24 78.8299L128.133 80.8073H126.526V80.8024ZM122.709 79.9729C123.124 79.9729 123.512 79.889 123.87 79.7236C124.23 79.5582 124.551 79.3286 124.837 79.0323L122.045 76.0872C121.613 76.4007 121.26 76.7266 120.989 77.0623C120.717 77.3981 120.581 77.7832 120.581 78.2177C120.581 78.4942 120.641 78.7435 120.762 78.9632C120.883 79.1854 121.041 79.3681 121.238 79.5162C121.435 79.6643 121.663 79.7779 121.914 79.8544C122.169 79.9334 122.433 79.9729 122.709 79.9729ZM121.231 73.0483C121.231 73.1495 121.245 73.2482 121.28 73.3445C121.312 73.4408 121.366 73.5519 121.445 73.6753C121.524 73.7987 121.633 73.9469 121.771 74.1172C121.909 74.2875 122.09 74.4875 122.309 74.7196C122.788 74.4159 123.176 74.1221 123.47 73.8407C123.763 73.5593 123.912 73.2433 123.912 72.8927C123.912 72.5693 123.791 72.3052 123.551 72.0978C123.312 71.8905 123.008 71.7868 122.638 71.7868C122.223 71.7868 121.885 71.9102 121.621 72.1521C121.361 72.399 121.231 72.6977 121.231 73.0483Z" fill="white"></path><path d="M140.405 78.2721C140.405 78.6498 140.329 78.9954 140.178 79.309C140.025 79.6225 139.818 79.8891 139.556 80.1113C139.295 80.3335 138.988 80.5038 138.643 80.6223C138.297 80.7432 137.927 80.8025 137.529 80.8025H132.871V70.9871H137.752C138.092 70.9871 138.401 71.0611 138.677 71.2092C138.954 71.3574 139.188 71.5474 139.383 71.782C139.578 72.0165 139.727 72.2856 139.833 72.5843C139.939 72.883 139.991 73.1867 139.991 73.4903C139.991 73.9791 139.867 74.4309 139.625 74.8456C139.381 75.2603 139.033 75.5689 138.581 75.7713C139.144 75.9367 139.588 76.2429 139.914 76.6897C140.243 77.1365 140.405 77.6648 140.405 78.2721ZM134.115 72.0659V75.3418H137.241C137.463 75.3418 137.665 75.2974 137.848 75.211C138.033 75.1246 138.191 75.0061 138.324 74.8579C138.458 74.7098 138.564 74.537 138.643 74.3395C138.722 74.142 138.761 73.9322 138.761 73.71C138.761 73.4804 138.724 73.2632 138.65 73.0608C138.576 72.8583 138.477 72.683 138.354 72.5349C138.231 72.3868 138.078 72.2732 137.897 72.1893C137.717 72.1054 137.527 72.0659 137.325 72.0659H134.115ZM139.146 78.0524C139.146 77.8302 139.107 77.6179 139.028 77.4105C138.949 77.2032 138.843 77.0205 138.71 76.865C138.576 76.7094 138.416 76.5835 138.233 76.4922C138.048 76.4009 137.845 76.354 137.626 76.354H134.115V79.7262H137.529C137.759 79.7262 137.971 79.6793 138.166 79.5879C138.359 79.4966 138.529 79.3731 138.677 79.2226C138.826 79.0695 138.939 78.8942 139.023 78.6893C139.107 78.4844 139.146 78.2721 139.146 78.0524Z" fill="white"></path><path d="M143.807 80.9407C143.466 80.9407 143.148 80.884 142.854 80.7679C142.558 80.6519 142.304 80.4939 142.086 80.2915C141.869 80.089 141.699 79.8521 141.575 79.5805C141.452 79.3089 141.388 79.0127 141.388 78.6893C141.388 78.3585 141.462 78.0549 141.61 77.7833C141.758 77.5118 141.968 77.2797 142.239 77.0847C142.511 76.8921 142.834 76.7391 143.207 76.628C143.58 76.5169 143.987 76.4626 144.432 76.4626C144.782 76.4626 145.138 76.4947 145.496 76.5589C145.856 76.623 146.172 76.7119 146.448 76.8205V76.2404C146.448 75.6504 146.283 75.1887 145.95 74.8505C145.619 74.5148 145.147 74.3469 144.54 74.3469C143.812 74.3469 143.047 74.6283 142.244 75.1912L141.844 74.4037C142.775 73.7767 143.711 73.4631 144.651 73.4631C145.599 73.4631 146.34 73.7174 146.871 74.2235C147.401 74.7296 147.665 75.4455 147.665 76.3663V79.3114C147.665 79.5978 147.794 79.7434 148.053 79.7533V80.805C147.925 80.8222 147.819 80.8371 147.735 80.8469C147.651 80.8568 147.564 80.8617 147.473 80.8617C147.233 80.8617 147.041 80.7902 146.9 80.647C146.757 80.5038 146.673 80.331 146.643 80.1285L146.616 79.6175C146.293 80.0496 145.886 80.3804 145.392 80.605C144.896 80.8272 144.367 80.9407 143.807 80.9407ZM144.123 80.0298C144.555 80.0298 144.96 79.9483 145.333 79.7879C145.705 79.6274 145.989 79.4126 146.182 79.146C146.357 78.9707 146.443 78.7905 146.443 78.6079V77.5438C145.853 77.3143 145.241 77.1982 144.604 77.1982C143.997 77.1982 143.501 77.3266 143.118 77.5858C142.736 77.845 142.545 78.1808 142.545 78.5955C142.545 78.7979 142.585 78.988 142.664 79.1633C142.743 79.3386 142.852 79.4916 142.995 79.62C143.138 79.7484 143.306 79.8496 143.498 79.9237C143.696 79.9928 143.903 80.0298 144.123 80.0298Z" fill="white"></path><path d="M153.427 74.6506C152.82 74.6703 152.282 74.8258 151.818 75.1196C151.351 75.4159 151.023 75.8256 150.83 76.349V80.8H149.613V73.5841H150.746V75.2579C150.996 74.7592 151.322 74.3568 151.729 74.0482C152.134 73.7396 152.568 73.5668 153.027 73.5298C153.119 73.5298 153.198 73.5298 153.262 73.5298C153.326 73.5298 153.383 73.5347 153.427 73.5446V74.6506Z" fill="white"></path></svg>