<svg xmlns="http://www.w3.org/2000/svg" width="481.458" height="135" viewBox="0 0 481.458 135">
  <g id="Group_596" data-name="Group 596" transform="translate(-131.208 -275.925)">
    <path id="Path_227" data-name="Path 227" d="M585.109,410.925h-453.9l27.556-135h453.9Z" transform="translate(0)" fill="#FFFFFF"/>
    <g id="Group_583" data-name="Group 583" transform="translate(185.846 302.295)">
      <path id="Path_228" data-name="Path 228" d="M160.189,289.5h14.384l-4.207,19.913,18.29-19.913h16.3l-22.935,23.452L195.07,341.86H178.479l-7.672-19.245-4.127,4.127-3.245,15.118h-14.38Z" transform="translate(-149.054 -274.308)" fill="#161615"/>
      <path id="Path_229" data-name="Path 229" d="M191.768,299.73h13.2l5.826,52.36H196.2l-.517-10.25H183.141l-4.795,10.25H163.675Zm3.689,32.521-.588-16.224-7.6,16.224Zm-4.424-40.043a6.557,6.557,0,0,1,2.765-5.713,12.329,12.329,0,0,1,7.262-1.956,9.42,9.42,0,0,1,5.309,1.292,4.353,4.353,0,0,1,1.92,3.873,6.554,6.554,0,0,1-2.765,5.713,12.183,12.183,0,0,1-7.189,1.956,9.638,9.638,0,0,1-5.349-1.289A4.34,4.34,0,0,1,191.034,292.207Zm9.142-3.686a3.627,3.627,0,0,0-2.357.778,2.467,2.467,0,0,0-.961,2.024q0,2.067,2.287,2.067a3.713,3.713,0,0,0,2.361-.811,2.513,2.513,0,0,0,1.032-2.064,1.779,1.779,0,0,0-.664-1.439A2.564,2.564,0,0,0,200.176,288.521Z" transform="translate(-118.911 -284.538)" fill="#161615"/>
      <path id="Path_230" data-name="Path 230" d="M180.39,341.86l11.135-52.36h23.008a12.237,12.237,0,0,1,5.679,1.292,13.009,13.009,0,0,1,4.2,3.392,15.573,15.573,0,0,1,2.618,4.828,17.48,17.48,0,0,1,.922,5.606,18.266,18.266,0,0,1-.738,5.125,22.011,22.011,0,0,1-2.1,4.9,23.617,23.617,0,0,1-3.282,4.39,24.041,24.041,0,0,1-4.277,3.579l6.27,19.245H207.6l-5.088-16.08h-4.351l-3.392,16.08Zm28.467-28.611a2.394,2.394,0,0,0,1.326-.521,5.756,5.756,0,0,0,1.4-1.473,9.129,9.129,0,0,0,1.105-2.287,8.981,8.981,0,0,0,.444-2.875,5.447,5.447,0,0,0-.7-2.988,1.956,1.956,0,0,0-1.586-1.069h-7.6l-2.361,11.212Z" transform="translate(-84.451 -274.308)" fill="#161615"/>
      <path id="Path_231" data-name="Path 231" d="M222.815,289.5h13.2l5.829,52.36h-14.6l-.517-10.25H214.188l-4.794,10.25H194.722ZM226.5,322.02l-.588-16.224-7.6,16.224Z" transform="translate(-54.904 -274.308)" fill="#161615"/>
      <path id="Path_232" data-name="Path 232" d="M222.572,289.5h14.38l-8.481,39.822h22.05l-2.654,12.537h-36.43Z" transform="translate(-20.444 -274.308)" fill="#161615"/>
      <path id="Path_233" data-name="Path 233" d="M236.157,289.5h14.38l-8.481,39.822h22.05l-2.654,12.537h-36.43Z" transform="translate(7.563 -274.308)" fill="#161615"/>
      <path id="Path_234" data-name="Path 234" d="M249.742,289.5H284.7l-2.654,12.537H261.468l-1.549,7.375h17.552l-2.51,11.652H257.411l-1.773,8.257h21.238l-2.654,12.537H238.607Z" transform="translate(35.57 -274.308)" fill="#161615"/>
      <path id="Path_235" data-name="Path 235" d="M263.591,289.5H274.8l13.272,26.624,5.6-26.624h14.383l-11.135,52.36H285.567l-13.275-25.736-5.453,25.736H252.456Z" transform="translate(64.121 -274.308)" fill="#161615"/>
    </g>
  </g>
</svg>
