<svg xmlns="http://www.w3.org/2000/svg" xmlns:xlink="http://www.w3.org/1999/xlink" version="1.1" id="Lager_1" x="0px" y="0px" viewBox="0 0 4624 1671" style="enable-background:new 0 0 4624 1671;" xml:space="preserve" width="4624"  height="1671" >
<style type="text/css">
	.st0{fill:#FFFFFF;}
	.st1{fill:#FEFEFE;}
</style>
<path class="st0" d="M2010,1671c-7.1-5-15.7-4.3-23.6-5.7c-51.7-8.9-103.3-18.6-154.6-29.5c-52.4-11.2-104.4-23.5-156.2-37.1  c-49.2-12.9-98.2-26.8-146.8-41.6c-48.3-14.8-96.4-30.5-144.2-47.1c-66.6-23.1-132.6-48.1-197.9-74.8  c-54.2-22.2-107.8-45.6-161.1-70.1c-52.7-24.2-104.7-49.7-156-76.5c-67.3-35.2-133.3-72.4-198-112.2  c-76.7-47.1-151.1-97.4-222.6-151.9c-40.5-30.8-80-62.9-118-96.8c-17.9-16-35.2-32.4-52.9-48.6c-23.6-21.6-45.5-44.9-67.1-68.3  c-53.8-58.4-102.4-120.7-141.4-190.1C50,585.8,33.5,549.5,21.1,511.4c-8.3-25.6-14.4-51.8-17.5-78.7c-0.6-5.1-0.7-10.5-3.6-15v-54  c2.9-3.9,3.2-8.6,3.6-13c2.5-24,9-46.9,17.6-69.3C42.8,226,80,182.3,126.1,145.9C160.3,118.9,198,98,237.8,80.6  c61.8-27,126.5-44.5,192.6-56.9c27.7-5.2,55.6-9.1,83.6-12.5c25-3,50.1-5.3,75.2-7.2c12.9-1,25.8-1.9,38.7-2.8  c8.7-0.3,17.5,2.1,26-1.4h80c-9.3,9.1-20.8,15.4-31,23.2c-44.8,34.1-84.1,73.6-115.8,120.2c-37.4,55-61.2,115.4-71.7,181.1  c-5.6,35.3-7.4,70.8-5,106.3c4.8,70.2,22.6,137.4,49.3,202.4c26,63.4,59.6,122.5,98,179.1c29,42.7,61,83.1,94.5,122.3  c34.9,40.7,72.2,79.2,111,116.2c52.2,49.8,107.3,96.4,164.6,140.4c49.2,37.7,99.7,73.4,151.5,107.3c51.2,33.5,103.8,65,157.2,94.9  c55.5,31.1,112.2,59.9,169.5,87.3c47.1,22.5,95,43.3,143.3,63.2c71.1,29.3,143.2,55.8,216.2,79.6c47.4,15.4,95.1,30.1,143.4,42.5  c4.5,1.2,9.2,1.8,12.9,5L2010,1671L2010,1671z"/>
<path class="st0" d="M4624,903.5c-3.2-1.3-6.6-0.7-9.9-0.7c-31,0-62-0.2-93,0.1c-6,0-9.4-1.7-12.3-7.3  c-23.5-44.7-47.5-89.1-71-133.8c-2.6-4.9-5.4-6.4-10.8-6.4c-106.3,0.2-212.7-0.3-319,0.5c-26.3,0.2-52.6,0.5-78.9,0.7  c-5.3,0-7.3,2.4-9.6,6.6c-23.5,44.7-47.3,89.2-70.9,133.9c-1.9,3.5-3.5,5.7-8.1,5.7c-31-0.2-62-0.1-93-0.2c-0.6,0-1.2-0.4-1.8-0.7  c-1-1.7,0-3.2,0.7-4.6c49.2-88.1,98.4-176.2,147.6-264.4c41.9-75.1,83.9-150.2,125.8-225.3c18-32.2,36-64.3,53.8-96.6  c2.2-4.1,4.9-5.4,9.4-5.4c31.7,0.2,63.3,0.3,95-0.1c6.3-0.1,9.5,2.2,12.3,7.3c23.4,41.3,46.9,82.6,70.4,123.8  c26.3,46.2,52.6,92.3,79,138.5c55.1,96.6,110.2,193.2,165.3,289.9c6.2,10.8,11.6,22.1,18.8,32.3L4624,903.5L4624,903.5z   M4229.3,376.1c-54.6,101.6-108.2,201.5-162.3,302.1h325.3C4337.9,577.4,4284.1,477.6,4229.3,376.1L4229.3,376.1z"/>
<path class="st1" d="M628,1.4c0-0.5,0-0.9,0-1.4h26C645.5,3.4,636.7,1,628,1.4z"/>
<path class="st0" d="M2860.3,308.5c3.6-2.1,7-1.3,10.3-1.3c165.6,0,331.2-0.1,496.9,0c18.4,0,36.4,2.9,53.8,9.2  c31,11.2,49.4,33.7,56.4,65.5c2.9,12.9,4.1,26.1,4.1,39.5c-0.1,47.6,0.1,95.2-0.1,142.9c-0.1,13.9-2.2,27.7-6.3,41.1  c-10,33-33.3,51.7-65.8,60.1c-18.8,4.8-38,6.1-57.3,6.3c-25,0.3-50,0.1-75,0.1h-12.3c93.4,77.7,184.9,153.8,276.7,230.2  c-2.7,2.7-5.5,1.6-7.9,1.6c-45.3,0.1-90.6,0-136,0.2c-5.3,0-9.2-1.4-13.2-5.2c-28-26.5-56.4-52.5-84.6-78.8  c-18-16.8-35.7-33.8-53.7-50.6c-23.3-21.8-46.8-43.4-70.1-65.1c-10.2-9.5-20.5-18.9-30.5-28.6c-2.9-2.9-5.9-3.6-9.8-3.6  c-55,0.1-110,0-164.9,0.1c-7.1,0-7.2,0.1-7.2,7.9c0,70.6,0,141.2,0,211.8c0,8.1-4,12.1-12.1,12.1c-27.3,0-54.6,0-82,0  c-8.9,0-7.8,0.5-7.9-8.2c-1.9-193.1-1.3-386.2-1.3-579.3C2860.4,313.4,2860.4,310.8,2860.3,308.5L2860.3,308.5z M3147.3,592.9  c57.3,0,114.6,0,171.9,0c9,0,17.9-1.2,26.6-3.5c13.1-3.4,22.4-11.6,27.2-24.1c2.9-7.7,4.6-15.9,4.6-24.3c0-34,0-67.9,0-101.9  c0-7.7-1.4-15.2-3.6-22.5c-4.2-14.1-13.4-23.2-27.5-27.6c-9.3-2.9-18.9-4-28.5-4c-115.6-0.1-231.2-0.1-346.8-0.1  c-8.2,0-7.7-0.1-7.6,7.5c0,1,0,2,0,3c0,62.3,0,124.5,0,186.8c0,2,0.1,4,0,6c-0.2,3.4,1.4,4.8,4.8,4.6c2.3-0.1,4.7,0,7,0  C3032.8,592.9,3090.1,592.9,3147.3,592.9L3147.3,592.9z"/>
<path class="st0" d="M1704.4,774.6c-1.4-12.8-3-25.6-4.2-38.4c-2.9-29.1-3.9-58.3-3.9-87.5c0.1-109.9,0-219.9,0.1-329.8  c0-12.6-1.7-11,11.2-11c25.3-0.1,50.7,0.1,76-0.1c5,0,7.6,1,6.8,6.5c-0.2,1.6,0,3.3,0,5c0,191.2,0,382.4,0,573.7  c0,13.5,1.5,11.7-11.5,11.8c-13,0.1-26-0.1-39,0.1c-4.2,0-7.4-0.9-10.7-3.9c-25.5-22.8-51.2-45.4-76.8-68  c-26.9-23.7-53.8-47.4-80.7-71.1c-30.6-27-61.2-54.2-91.8-81.2c-26.6-23.5-53.3-47-79.9-70.5c-30.6-27-61.2-54.1-91.8-81.2  c-20.9-18.5-41.8-37-62.8-55.4c-12.3-10.8-23.4-22.6-33.2-35.7c-1.5-2-2.2-4.8-5.8-5.9c-1.5,5.7-0.3,11.2,0.3,16.5  c2.2,19.1,3.7,38.3,3.6,57.5c-0.7,121.9,2.3,243.7,1.5,365.6c-0.1,9-0.2,18,0.1,27c0.2,4.8-1.6,6.3-6.3,6.3c-27.7-0.2-55.3-0.2-83,0  c-4.9,0-6.7-1.7-6.2-6.4c0.2-2,0-4,0-6c0-190.9,0-381.8,0-572.7c0-7.9,4.1-11.9,12.4-11.9c15,0,30,0.2,45-0.1  c5.1-0.1,8.9,1.4,12.6,4.5c42.7,37.4,85.5,74.8,128.2,112.1c43.5,38,87.2,75.9,130.7,113.8c38,33.2,76,66.5,114,99.7  c27.5,24,55,48,82.4,72.2c21.2,18.8,39.9,40,58,61.7c1,1.2,2.1,2.4,3.1,3.6L1704.4,774.6L1704.4,774.6z"/>
<path class="st0" d="M2274.3,606c0-95.9,0-191.8,0-287.6c0-12.2-2.2-11.2,11-11.2c27.3,0,54.6,0,81.9,0c10,0,9-0.6,9,9.2  c0,76.6-1.1,153.2,0.3,229.7c2.1,115.8,0.2,231.6,1,347.4c0.1,12,1.9,11.3-11.1,11.3c-27.3,0-54.6,0-81.9,0  c-11.7,0-10.3,0.3-10.3-10.2C2274.3,798.4,2274.3,702.2,2274.3,606L2274.3,606z"/>
<path class="st0" d="M4404.9,1243.2c1.5,7.8,0.5,15.1,0.8,22.4c0.2,6.8,0.2,6.9,7.3,6.9c23.3,0.1,46.6,0,70,0s44.6,0,67,0  c7.6,0,7.7-0.2,7.7-7.7c0.1-13.3-0.2-26.6,0.1-39.9c0.1-4.9-1.6-6.4-6.3-6.2c-22.6,0.6-45.2,0.1-67.9,0.5  c-24.9,0.5-49.9,2.2-74.7-1.6c-18.3-2.8-25.5-9.4-27.7-27.4c-1.9-15.7-2.4-31.8,0.5-47.6c2.8-15.5,9.9-22.5,25.4-25  c7.8-1.2,15.8-2,23.8-2c33.6-0.2,67.3,0,100.9-0.2c8.4-0.1,16.6,0.7,24.8,1.6c19.4,2.2,28.9,12.4,29.6,32.2  c0.1,3.6,3.4,7.5,0.5,10.5c-2.7,2.8-7.1,2.9-11,3.8c-6.1,1.3-12,3.7-19.4,4.1c0-7.4-0.1-14.6,0-21.8c0-2.9-0.9-4.4-4-4.2  c-1.3,0.1-2.7,0-4,0c-43,0-86,0-128.9,0c-8.4,0-7.8-0.2-7.8,7.4c0,11.7,0,23.3,0,35c0,8.2-0.4,7.6,7.5,7.6c42,0,84,0,125.9,0  c8,0,15.9,1,23.5,3.3c11.4,3.5,17.5,11.5,19.5,22.9c1.2,6.5,1.9,13.1,1.6,19.8c-0.6,11.2,0.8,22.5-1.3,33.8  c-2.8,15.2-9.6,23-24.5,26.2c-7.1,1.5-14.4,2.1-21.8,2.1c-41.3,0-82.6,0-123.9,0c-6,0-11.9-0.9-17.8-1.7  c-20.3-2.9-26-15.1-28.1-30.9c-0.1-0.7,0-1.3,0-2c-0.3-9.7,4.3-15.5,13.9-17.5C4392.4,1246,4398.5,1244.6,4404.9,1243.2  L4404.9,1243.2z"/>
<path class="st0" d="M2279.6,1208.3c0-27.7,0-55.3,0-82.9c0-8.8-0.3-8,8.2-8c41,0,82-0.3,123,0.1c15.3,0.2,30.6,1.8,45.2,6.6  c29.3,9.6,48.9,29.2,56.4,59.2c8.5,34.2,2.1,65.2-23.4,90.9c-10.3,10.4-22.9,17-37,20.6c-14.6,3.7-29.4,5.4-44.4,5.5  c-39.7,0.4-79.3,0.1-119,0.2c-9.5,0-9.1,0.7-9.1-9.3C2279.7,1263.6,2279.7,1236,2279.6,1208.3L2279.6,1208.3z M2365,1143.4  c-15,0-29.9,0.1-44.9-0.1c-4.2-0.1-6.3,1.1-5.8,5.6c0.2,2,0.1,4,0,6c-1,37.2,2,74.4,1.4,111.6c-0.1,7.9,0.1,8.1,8.3,7.9  c27.2-0.4,54.5,0.8,81.8-1c12.3-0.8,24.4-2.5,36.1-6.2c19-5.9,30.9-18.8,35.6-38.1c2.4-9.7,3-19.8,2-29.7c-2.8-26-13.2-41.5-38.4-50  c-12.3-4.1-25.1-6.1-38.1-6.2C2390.3,1143.3,2377.7,1143.4,2365,1143.4L2365,1143.4z"/>
<path class="st0" d="M3573.7,1158.2c0,44.3,0,86.2,0,128.1c0,2.7-0.2,5.3,0,8c0.4,4-1.5,5.3-5.2,5.1c-7.9-0.5-15.9,0.7-23.8-0.7  c-2.2-7.4-0.9-15.1-1-22.6c-0.1-49.3-0.1-98.6,0-147.9c0-3.6-0.7-7.3,0.9-11.7c8,0,16.3,0.1,24.6,0c3.6,0,5.1,2.5,7,4.8  c29.1,34.5,58.4,68.8,87.5,103.3c2.5,3,5.7,5.3,7.7,10.1c10-12.5,19.1-23.8,28-35.2c20.1-25.6,40.3-51.1,60.1-76.9  c3.4-4.4,6.7-6.7,12.4-6.3c7,0.5,14,0.2,21,0.1c3.3,0,5,1.2,4.7,4.7c-0.2,2,0,4,0,6c0,53.9,0,107.9,0,161.8c0,1.7-0.1,3.3,0,5  c0.4,3.8-1,5.4-5,5.3c-8.6-0.3-17.2-0.4-25.9-0.5c-2.8-8.1-1-16.3-1.1-24.5c-0.3-22,0-44-0.1-65.9c-0.1-9.6-2.5-19.2-1.2-28.8  c1.1-7.8,1.2-15.5,1.3-25.6c-11.3,17.9-23.7,32.4-35.3,47.5c-16.3,21.3-32.8,42.6-49.4,63.7c-1.7,2.2-2.8,5.6-6.3,6  c-4.4,0.5-7.9,0.1-11.2-4c-13.3-16.5-27.2-32.6-40.6-48.9C3606.9,1198.9,3590.2,1180.1,3573.7,1158.2L3573.7,1158.2z"/>
<path class="st0" d="M4235.6,1227c11.2,2.1,20.6,4,30.1,5.6c4.2,0.7,6.3,1.9,6.1,6.9c-0.5,10.9,0.1,21.9-1.7,32.8  c-2.2,13.4-9.2,21.5-22.5,24.7c-7.1,1.8-14.4,2.4-21.7,2.4c-41.3,0-82.6,0-124,0c-6.7,0-13.3-0.8-19.8-2.3  c-11.7-2.8-19.4-10.1-21.8-22c-1.2-5.8-2.2-11.7-2.1-17.7c0.1-33.3,0.1-66.6,0-99.9c0-6.1,1-11.9,2.2-17.7  c2-10.3,8.7-16.9,18.6-20.2c6.4-2.1,12.9-2.9,19.6-2.9c44.6,0.1,89.3,0,134,0.1c3.6,0,7.3,0.3,10.9,0.8c16.9,2.5,25,11.3,26.9,28.3  c0.9,7.9,1.5,15.8,1.3,23.8c-0.2,7.7-0.1,7.7-8.1,9.1c-8.8,1.5-17.7,2.9-27.1,4.4c-1.8-8.5-0.3-17.1-0.9-25.5  c-0.4-5.2,2.5-11.8-1.5-15.2c-3.4-3-9.6-0.9-14.5-0.9c-39-0.1-78-0.1-117,0c-9.8,0-8.9-1.2-8.9,9.2c0,37.6,0,75.3,0,112.9  c0,9.5-0.6,8.9,8.3,8.9c41.7,0,83.3,0,125,0c8.6,0,8.6-0.1,8.7-8.8C4235.7,1251.8,4235.6,1239.9,4235.6,1227L4235.6,1227z"/>
<path class="st0" d="M3113.6,1117.2c1.3,3.6,0.7,6.9,0.7,10.2c0,40.9,0,81.9,0.1,122.8c0,13.6,1.9,27.1,1.4,40.8  c-0.4,9.1,1.4,9.2-9,9.7c-7.8,0.4-13.6-2-19.8-6.9c-53.4-43.1-107.1-85.9-160.8-128.7c-2.6-2.1-5.1-4.1-6.7-6.9  c-2.1,0.5-1.8,2-1.8,3.2c1.4,43.9,0.3,87.9,0.6,131.8c0.1,7.2-0.1,7.3-6.9,7.4c-6.7,0.1-13.3-0.1-20,0.1c-4,0.1-5.4-1.7-5.1-5.4  c0.1-1.3,0-2.7,0-4c0-55.3,0-110.5,0-165.8c0-8.7,0.1-8.2,8.5-8.9c9.6-0.9,16.9,2.2,24.4,8.2c49,39.2,98.4,77.8,147.5,116.8  c5.8,4.6,10.9,10.3,17,16.2c1.1-9.1-1.3-16.8-1.3-24.6c0-36.3,0-72.6,0-108.9c0-7.5,0.1-7.7,7.6-7.6  C3097.9,1116.7,3105.8,1115.8,3113.6,1117.2L3113.6,1117.2z"/>
<path class="st0" d="M3457.8,1299.3c-12.4,0-23.3-0.2-34.3,0.1c-4,0.1-6-1.6-7.8-4.8c-6.1-10.7-12.6-21.1-18.4-31.9  c-3.1-5.7-6.9-7.6-13.4-7.6c-40.6,0.4-81.3,0.3-122,0c-6.2-0.1-9.6,2.1-12.4,7.3c-5.9,10.8-12.4,21.2-18.4,31.9  c-2.6,4.6-5.7,6.6-11.1,6.3c-8.6-0.5-17.3-0.1-25.7-0.1c-2-3.1,0.3-4.7,1.5-6.5c34.7-56.2,69.5-112.4,103.9-168.8  c3.9-6.4,8-9.7,15.8-8.8c6.9,0.8,14,0.4,21,0.1c5-0.3,7.6,1.7,10.2,5.9c17.7,28.5,35.7,56.8,53.6,85.2  c17.7,28.1,35.5,56.2,53.2,84.2C3454.7,1293.7,3455.7,1295.8,3457.8,1299.3L3457.8,1299.3z M3323.5,1139.8  c-18.8,27.7-50.8,83.5-51.9,90.1h105.6C3358.9,1199.2,3341.3,1169.7,3323.5,1139.8L3323.5,1139.8z"/>
<path class="st0" d="M2582.9,1117.4c13.7,0,27.2,0,40.8,0c3.9,0,5.6,3.3,7.9,5.6c22.3,22.5,44.4,45,66.7,67.5  c2.3,2.3,4.1,5.2,7.7,6.6c13.4-14.2,26.9-28.4,40.4-42.5c10.8-11.3,21.6-22.6,32.4-33.8c1.6-1.7,3.1-3.5,5.8-3.4  c12.9,0.4,25.8-1.9,38.7-0.4c0.6,3.3-2,4.2-3.4,5.7c-23,23.1-46.1,46.2-69.2,69.2c-7.6,7.5-15.2,14.9-23.1,22  c-4.3,3.9-5.9,8.1-5.9,13.9c0.3,21.6,0.2,43.3,0.1,64.9c0,7.6-0.1,7.7-7.6,7.8c-7,0.1-14-0.2-21,0.1c-5.2,0.2-6.9-1.5-6.9-6.8  c0.3-16,0.1-32,0.1-47.9v-6c0-20.8,0.1-20.9-15.7-34.6c-5.3-4.6-10.2-9.5-15.2-14.4c-22.8-22.4-45.6-44.8-68.3-67.3  C2585.6,1122.1,2583.5,1120.9,2582.9,1117.4L2582.9,1117.4z"/>
<path class="st0" d="M3900.2,1116.6c10.7,0,21.2,0,31.8,0c2.3,0,3.7,1,3.7,3.6c-0.1,2.3,0,4.7,0,7c0,53.9,0,107.7,0,161.6  c0,2.3-0.1,4.7,0,7c0.1,2.5-1.3,3.6-3.6,3.6c-9.3,0-18.6,0-27.9,0c-2.3,0-3.8-0.8-3.8-3.4c0-1,0-2,0-3  c-0.2-57.2-0.4-114.3-0.6-171.5C3899.7,1120.1,3899.9,1118.8,3900.2,1116.6L3900.2,1116.6z"/>
</svg>