<svg width="966.4" height="72.801" viewBox="0 0 966.4 72.801" xmlns="http://www.w3.org/2000/svg"><g id="svgGroup" stroke-linecap="round" fill-rule="evenodd" font-size="9pt" stroke="#fff" stroke-width="0.25mm" fill="#fff" style="stroke:#fff;stroke-width:0.25mm;fill:#fff"><path d="M 252.7 48.5 L 252.7 46 L 263.4 46 L 263.4 48.5 Q 263.4 54.211 266.05 57.718 A 11.308 11.308 0 0 0 267.85 59.6 A 15.334 15.334 0 0 0 273.981 62.642 Q 276.578 63.3 279.7 63.3 A 28.62 28.62 0 0 0 283.827 63.023 Q 288.328 62.365 291 60.15 A 10.008 10.008 0 0 0 294.767 52.922 A 12.513 12.513 0 0 0 294.8 52 A 9.92 9.92 0 0 0 294.525 49.605 A 7.217 7.217 0 0 0 293 46.6 Q 291.2 44.5 287.9 43.25 A 49.656 49.656 0 0 0 285.242 42.334 Q 283.763 41.868 282.085 41.424 A 90.966 90.966 0 0 0 280 40.9 L 276.3 40 A 71.338 71.338 0 0 1 270.403 38.336 Q 267.67 37.428 265.315 36.359 A 43.026 43.026 0 0 1 264.65 36.05 Q 259.7 33.7 257 29.8 Q 254.472 26.149 254.311 20.569 A 26.632 26.632 0 0 1 254.3 19.8 A 21.06 21.06 0 0 1 254.926 14.551 A 16.514 16.514 0 0 1 257.35 9.2 A 19.156 19.156 0 0 1 263.858 3.371 A 23.624 23.624 0 0 1 265.8 2.4 Q 271.19 0.005 278.474 0 A 43.905 43.905 0 0 1 278.5 0 A 36.545 36.545 0 0 1 285.616 0.665 A 28.964 28.964 0 0 1 291.55 2.5 A 21.15 21.15 0 0 1 298.171 6.943 A 19.955 19.955 0 0 1 300.6 9.9 Q 303.813 14.671 303.898 21.81 A 32.745 32.745 0 0 1 303.9 22.2 L 303.9 25.8 L 293.2 25.8 L 293.2 22.2 Q 293.2 18.646 292.046 16.153 A 9.521 9.521 0 0 0 291.35 14.9 A 10.658 10.658 0 0 0 286.354 10.862 A 12.954 12.954 0 0 0 286.2 10.8 A 17.997 17.997 0 0 0 282.383 9.786 Q 280.619 9.509 278.629 9.501 A 29.637 29.637 0 0 0 278.5 9.5 A 25.084 25.084 0 0 0 274.778 9.759 Q 272.766 10.062 271.134 10.718 A 11.404 11.404 0 0 0 268.55 12.15 A 8.472 8.472 0 0 0 265.059 18.323 A 11.473 11.473 0 0 0 265 19.5 A 10.828 10.828 0 0 0 265.232 21.803 Q 265.576 23.388 266.433 24.592 A 6.844 6.844 0 0 0 266.55 24.75 Q 268.009 26.68 270.753 27.946 A 16.444 16.444 0 0 0 271.1 28.1 A 30.3 30.3 0 0 0 273.561 29.033 Q 274.953 29.497 276.573 29.915 A 61.673 61.673 0 0 0 278.6 30.4 L 282.3 31.3 Q 289.1 32.8 294.3 35.15 A 22.981 22.981 0 0 1 299.078 38.013 A 18.746 18.746 0 0 1 302.5 41.5 A 14.426 14.426 0 0 1 304.966 46.894 Q 305.5 49.143 305.5 51.8 Q 305.5 58.1 302.35 62.8 A 19.985 19.985 0 0 1 295.973 68.796 A 25.267 25.267 0 0 1 293.4 70.15 Q 287.6 72.8 279.7 72.8 Q 271.8 72.8 265.7 70 Q 259.6 67.2 256.15 61.75 A 21.765 21.765 0 0 1 253.195 54.074 A 29.964 29.964 0 0 1 252.7 48.5 Z M 38.2 71.4 L 19.5 71.4 L 0 1.4 L 11.2 1.4 L 28.2 64.6 L 29.5 64.6 L 46.4 1.4 L 57.6 1.4 L 38.2 71.4 Z M 627.2 71.4 L 616.4 71.4 L 616.4 1.4 L 645.8 1.4 Q 652.3 1.4 657.25 3.65 A 18.764 18.764 0 0 1 662.353 7.01 A 16.863 16.863 0 0 1 664.95 10.1 A 16.716 16.716 0 0 1 667.476 16.923 A 21.874 21.874 0 0 1 667.7 20.1 L 667.7 21.2 Q 667.7 26.587 665.601 30.209 A 12.601 12.601 0 0 1 664.55 31.75 A 17.364 17.364 0 0 1 659.453 36.143 A 16.55 16.55 0 0 1 656.9 37.3 L 656.9 38.9 A 10.628 10.628 0 0 1 659.74 39.418 A 8.111 8.111 0 0 1 663 41.45 A 7.579 7.579 0 0 1 664.828 44.634 Q 665.182 45.813 665.27 47.23 A 15.559 15.559 0 0 1 665.3 48.2 L 665.3 71.4 L 654.4 71.4 L 654.4 49.7 Q 654.4 47 653 45.4 Q 651.868 44.107 649.625 43.859 A 10.261 10.261 0 0 0 648.5 43.8 L 627.2 43.8 L 627.2 71.4 Z M 373 51.7 L 373 22.1 L 383.3 22.1 L 383.3 51 A 20.288 20.288 0 0 0 383.582 54.505 Q 384.25 58.306 386.5 60.45 A 10.55 10.55 0 0 0 391.145 62.987 Q 392.792 63.428 394.751 63.49 A 20.514 20.514 0 0 0 395.4 63.5 A 15.159 15.159 0 0 0 400.114 62.799 A 12.417 12.417 0 0 0 405.55 59.25 Q 409.4 55 409.4 47 L 409.4 22.1 L 419.7 22.1 L 419.7 71.4 L 409.6 71.4 L 409.6 64 L 408 64 A 12.042 12.042 0 0 1 406.204 66.736 Q 405.276 67.819 404.027 68.851 A 23.299 23.299 0 0 1 403 69.65 A 11.741 11.741 0 0 1 399.669 71.316 Q 398.073 71.839 396.122 72.084 A 29.949 29.949 0 0 1 392.4 72.3 A 21.473 21.473 0 0 1 386.48 71.509 A 18.52 18.52 0 0 1 382.4 69.8 Q 378 67.3 375.5 62.7 A 20.015 20.015 0 0 1 373.445 56.78 A 27.628 27.628 0 0 1 373 51.7 Z M 748.6 71.4 L 738.3 71.4 L 738.3 22.1 L 748.4 22.1 L 748.4 29.5 L 750 29.5 A 11.826 11.826 0 0 1 751.796 26.776 Q 752.744 25.679 754.028 24.642 A 22.723 22.723 0 0 1 755 23.9 A 11.733 11.733 0 0 1 758.269 22.291 Q 761.318 21.3 765.7 21.3 A 21.385 21.385 0 0 1 771.451 22.048 A 18.149 18.149 0 0 1 775.65 23.8 Q 780 26.3 782.5 30.85 A 19.564 19.564 0 0 1 784.521 36.555 Q 785 39 785 41.8 L 785 71.4 L 774.7 71.4 L 774.7 42.6 A 20.288 20.288 0 0 0 774.418 39.096 Q 773.75 35.295 771.5 33.15 Q 768.3 30.1 762.7 30.1 A 15.812 15.812 0 0 0 758.089 30.741 A 12.415 12.415 0 0 0 752.45 34.3 A 13.474 13.474 0 0 0 749.593 39.355 Q 748.941 41.378 748.717 43.823 A 29.368 29.368 0 0 0 748.6 46.5 L 748.6 71.4 Z M 810.1 71.4 L 799.8 71.4 L 799.8 22.1 L 809.9 22.1 L 809.9 29.5 L 811.5 29.5 A 11.826 11.826 0 0 1 813.296 26.776 Q 814.244 25.679 815.528 24.642 A 22.723 22.723 0 0 1 816.5 23.9 A 11.733 11.733 0 0 1 819.769 22.291 Q 822.818 21.3 827.2 21.3 A 21.385 21.385 0 0 1 832.951 22.048 A 18.149 18.149 0 0 1 837.15 23.8 Q 841.5 26.3 844 30.85 A 19.564 19.564 0 0 1 846.021 36.555 Q 846.5 39 846.5 41.8 L 846.5 71.4 L 836.2 71.4 L 836.2 42.6 A 20.288 20.288 0 0 0 835.918 39.096 Q 835.25 35.295 833 33.15 Q 829.8 30.1 824.2 30.1 A 15.812 15.812 0 0 0 819.589 30.741 A 12.415 12.415 0 0 0 813.95 34.3 A 13.474 13.474 0 0 0 811.093 39.355 Q 810.441 41.378 810.217 43.823 A 29.368 29.368 0 0 0 810.1 46.5 L 810.1 71.4 Z M 930 71.4 L 919.7 71.4 L 919.7 22.1 L 929.8 22.1 L 929.8 29.5 L 931.4 29.5 A 11.826 11.826 0 0 1 933.196 26.776 Q 934.144 25.679 935.428 24.642 A 22.723 22.723 0 0 1 936.4 23.9 A 11.733 11.733 0 0 1 939.669 22.291 Q 942.718 21.3 947.1 21.3 A 21.385 21.385 0 0 1 952.851 22.048 A 18.149 18.149 0 0 1 957.05 23.8 Q 961.4 26.3 963.9 30.85 A 19.564 19.564 0 0 1 965.921 36.555 Q 966.4 39 966.4 41.8 L 966.4 71.4 L 956.1 71.4 L 956.1 42.6 A 20.288 20.288 0 0 0 955.818 39.096 Q 955.15 35.295 952.9 33.15 Q 949.7 30.1 944.1 30.1 A 15.812 15.812 0 0 0 939.489 30.741 A 12.415 12.415 0 0 0 933.85 34.3 A 13.474 13.474 0 0 0 930.993 39.355 Q 930.341 41.378 930.117 43.823 A 29.368 29.368 0 0 0 930 46.5 L 930 71.4 Z M 432.5 47.4 L 432.5 46.1 A 31.864 31.864 0 0 1 433.13 39.605 A 23.168 23.168 0 0 1 435.85 32.45 Q 439.2 26.8 444.95 23.75 A 26.371 26.371 0 0 1 455.614 20.775 A 31.667 31.667 0 0 1 457.8 20.7 A 32.533 32.533 0 0 1 463.222 21.13 Q 466.931 21.757 469.9 23.3 A 22.927 22.927 0 0 1 476.08 27.916 A 21.328 21.328 0 0 1 477.95 30.2 Q 481 34.5 481.9 39.7 L 471.9 41.8 A 16.718 16.718 0 0 0 470.279 36.67 A 15.707 15.707 0 0 0 469.8 35.8 A 11.626 11.626 0 0 0 465.39 31.551 A 13.731 13.731 0 0 0 465.3 31.5 Q 462.4 29.9 458 29.9 A 16.295 16.295 0 0 0 452.957 30.662 A 14.646 14.646 0 0 0 450.25 31.85 Q 446.8 33.8 444.8 37.45 A 15.676 15.676 0 0 0 443.197 41.977 Q 442.825 43.859 442.802 46.012 A 26.707 26.707 0 0 0 442.8 46.3 L 442.8 47.2 A 22.608 22.608 0 0 0 443.169 51.392 Q 443.659 53.99 444.8 56.1 Q 446.8 59.8 450.25 61.7 A 15.426 15.426 0 0 0 456.677 63.554 A 18.614 18.614 0 0 0 458 63.6 A 20.24 20.24 0 0 0 461.76 63.273 Q 463.943 62.86 465.644 61.925 A 10.198 10.198 0 0 0 467.9 60.25 A 14.868 14.868 0 0 0 471.837 53.357 A 18.829 18.829 0 0 0 472.2 51.7 L 482.2 54 Q 481 59.1 477.95 63.4 A 21.67 21.67 0 0 1 470.517 69.925 A 25.375 25.375 0 0 1 469.9 70.25 Q 465.12 72.688 458.42 72.795 A 38.776 38.776 0 0 1 457.8 72.8 A 28.979 28.979 0 0 1 449.55 71.658 A 25.605 25.605 0 0 1 444.95 69.8 Q 439.2 66.8 435.85 61.1 Q 432.5 55.4 432.5 47.4 Z M 79.7 42 L 94.7 42 L 94.7 38.8 A 11.537 11.537 0 0 0 94.319 35.757 A 8.527 8.527 0 0 0 92.1 31.9 A 8.012 8.012 0 0 0 89.047 30.034 Q 87.781 29.587 86.221 29.412 A 19.082 19.082 0 0 0 84.1 29.3 Q 78.8 29.3 76 31.8 A 11.727 11.727 0 0 0 72.559 37.309 A 14.695 14.695 0 0 0 72.3 38.3 L 62.7 35.2 Q 63.9 31.2 66.55 27.95 A 17.831 17.831 0 0 1 71.006 24.082 A 22.698 22.698 0 0 1 73.6 22.7 Q 77.656 20.857 83.242 20.713 A 37.157 37.157 0 0 1 84.2 20.7 A 30.37 30.37 0 0 1 90.316 21.279 Q 94.074 22.052 96.969 23.857 A 17.076 17.076 0 0 1 99.3 25.6 Q 104.8 30.5 104.8 39.5 L 104.8 59.8 Q 104.8 62.353 106.827 62.734 A 4.192 4.192 0 0 0 107.6 62.8 L 111.8 62.8 L 111.8 71.4 L 104.1 71.4 A 11.118 11.118 0 0 1 101.611 71.137 A 7.712 7.712 0 0 1 98.4 69.6 A 5.869 5.869 0 0 1 96.221 65.293 A 8.228 8.228 0 0 1 96.2 64.7 L 96.2 64.4 L 94.7 64.4 A 15.864 15.864 0 0 1 94.005 65.569 Q 93.313 66.635 92.3 67.9 A 10.217 10.217 0 0 1 90.47 69.655 Q 89.553 70.349 88.397 70.956 A 19.353 19.353 0 0 1 87.6 71.35 A 13.502 13.502 0 0 1 84.873 72.262 Q 82.508 72.8 79.4 72.8 Q 74.1 72.8 69.95 71 A 15.706 15.706 0 0 1 64.955 67.629 A 14.938 14.938 0 0 1 63.35 65.7 A 12.72 12.72 0 0 1 63.312 65.646 Q 61.635 63.223 61.124 60.086 A 17.938 17.938 0 0 1 60.9 57.2 A 17.477 17.477 0 0 1 61.289 53.414 A 12.312 12.312 0 0 1 63.35 48.75 A 14.519 14.519 0 0 1 68.642 44.334 A 17.985 17.985 0 0 1 70.05 43.7 A 23.425 23.425 0 0 1 75.657 42.26 A 30.409 30.409 0 0 1 79.7 42 Z M 188.6 42 L 203.6 42 L 203.6 38.8 A 11.537 11.537 0 0 0 203.219 35.757 A 8.527 8.527 0 0 0 201 31.9 A 8.012 8.012 0 0 0 197.947 30.034 Q 196.681 29.587 195.121 29.412 A 19.082 19.082 0 0 0 193 29.3 Q 187.7 29.3 184.9 31.8 A 11.727 11.727 0 0 0 181.459 37.309 A 14.695 14.695 0 0 0 181.2 38.3 L 171.6 35.2 Q 172.8 31.2 175.45 27.95 A 17.831 17.831 0 0 1 179.906 24.082 A 22.698 22.698 0 0 1 182.5 22.7 Q 186.556 20.857 192.142 20.713 A 37.157 37.157 0 0 1 193.1 20.7 A 30.37 30.37 0 0 1 199.216 21.279 Q 202.974 22.052 205.869 23.857 A 17.076 17.076 0 0 1 208.2 25.6 Q 213.7 30.5 213.7 39.5 L 213.7 59.8 Q 213.7 62.353 215.727 62.734 A 4.192 4.192 0 0 0 216.5 62.8 L 220.7 62.8 L 220.7 71.4 L 213 71.4 A 11.118 11.118 0 0 1 210.511 71.137 A 7.712 7.712 0 0 1 207.3 69.6 A 5.869 5.869 0 0 1 205.121 65.293 A 8.228 8.228 0 0 1 205.1 64.7 L 205.1 64.4 L 203.6 64.4 A 15.864 15.864 0 0 1 202.905 65.569 Q 202.213 66.635 201.2 67.9 A 10.217 10.217 0 0 1 199.37 69.655 Q 198.453 70.349 197.297 70.956 A 19.353 19.353 0 0 1 196.5 71.35 A 13.502 13.502 0 0 1 193.773 72.262 Q 191.408 72.8 188.3 72.8 Q 183 72.8 178.85 71 A 15.706 15.706 0 0 1 173.855 67.629 A 14.938 14.938 0 0 1 172.25 65.7 A 12.72 12.72 0 0 1 172.212 65.646 Q 170.535 63.223 170.024 60.086 A 17.938 17.938 0 0 1 169.8 57.2 A 17.477 17.477 0 0 1 170.189 53.414 A 12.312 12.312 0 0 1 172.25 48.75 A 14.519 14.519 0 0 1 177.542 44.334 A 17.985 17.985 0 0 1 178.95 43.7 A 23.425 23.425 0 0 1 184.557 42.26 A 30.409 30.409 0 0 1 188.6 42 Z M 332.7 42 L 347.7 42 L 347.7 38.8 A 11.537 11.537 0 0 0 347.319 35.757 A 8.527 8.527 0 0 0 345.1 31.9 A 8.012 8.012 0 0 0 342.047 30.034 Q 340.781 29.587 339.221 29.412 A 19.082 19.082 0 0 0 337.1 29.3 Q 331.8 29.3 329 31.8 A 11.727 11.727 0 0 0 325.559 37.309 A 14.695 14.695 0 0 0 325.3 38.3 L 315.7 35.2 Q 316.9 31.2 319.55 27.95 A 17.831 17.831 0 0 1 324.006 24.082 A 22.698 22.698 0 0 1 326.6 22.7 Q 330.656 20.857 336.242 20.713 A 37.157 37.157 0 0 1 337.2 20.7 A 30.37 30.37 0 0 1 343.316 21.279 Q 347.074 22.052 349.969 23.857 A 17.076 17.076 0 0 1 352.3 25.6 Q 357.8 30.5 357.8 39.5 L 357.8 59.8 Q 357.8 62.353 359.827 62.734 A 4.192 4.192 0 0 0 360.6 62.8 L 364.8 62.8 L 364.8 71.4 L 357.1 71.4 A 11.118 11.118 0 0 1 354.611 71.137 A 7.712 7.712 0 0 1 351.4 69.6 A 5.869 5.869 0 0 1 349.221 65.293 A 8.228 8.228 0 0 1 349.2 64.7 L 349.2 64.4 L 347.7 64.4 A 15.864 15.864 0 0 1 347.005 65.569 Q 346.313 66.635 345.3 67.9 A 10.217 10.217 0 0 1 343.47 69.655 Q 342.553 70.349 341.397 70.956 A 19.353 19.353 0 0 1 340.6 71.35 A 13.502 13.502 0 0 1 337.873 72.262 Q 335.508 72.8 332.4 72.8 Q 327.1 72.8 322.95 71 A 15.706 15.706 0 0 1 317.955 67.629 A 14.938 14.938 0 0 1 316.35 65.7 A 12.72 12.72 0 0 1 316.312 65.646 Q 314.635 63.223 314.124 60.086 A 17.938 17.938 0 0 1 313.9 57.2 A 17.477 17.477 0 0 1 314.289 53.414 A 12.312 12.312 0 0 1 316.35 48.75 A 14.519 14.519 0 0 1 321.642 44.334 A 17.985 17.985 0 0 1 323.05 43.7 A 23.425 23.425 0 0 1 328.657 42.26 A 30.409 30.409 0 0 1 332.7 42 Z M 491.7 47.4 L 491.7 46.2 A 32.386 32.386 0 0 1 492.381 39.41 A 24.968 24.968 0 0 1 494.8 32.75 Q 497.9 27 503.45 23.85 A 24.107 24.107 0 0 1 512.332 20.95 A 30.733 30.733 0 0 1 516.3 20.7 Q 523.4 20.7 528.75 23.85 Q 534.1 27 537.1 32.6 A 24.972 24.972 0 0 1 539.713 40.555 A 32.923 32.923 0 0 1 540.1 45.7 L 540.1 49.6 L 502.2 49.6 A 17.057 17.057 0 0 0 502.959 54.274 A 12.996 12.996 0 0 0 506.55 59.95 A 14.31 14.31 0 0 0 515.475 63.748 A 18.875 18.875 0 0 0 516.9 63.8 Q 520.684 63.8 523.254 62.694 A 8.929 8.929 0 0 0 525.65 61.2 Q 528.6 58.6 530.2 55.2 L 538.7 59.6 Q 537.497 62.007 535.371 64.634 A 41.729 41.729 0 0 1 534.65 65.5 A 19.41 19.41 0 0 1 530.693 68.985 A 25.087 25.087 0 0 1 527.7 70.7 A 18.824 18.824 0 0 1 523.52 72.127 Q 521.535 72.569 519.218 72.721 A 38.49 38.49 0 0 1 516.7 72.8 A 30.284 30.284 0 0 1 510.086 72.108 A 23.677 23.677 0 0 1 503.6 69.65 Q 498 66.5 494.85 60.75 A 25.445 25.445 0 0 1 492.015 52.025 A 32.856 32.856 0 0 1 491.7 47.4 Z M 677.5 47.4 L 677.5 46.2 A 32.386 32.386 0 0 1 678.181 39.41 A 24.968 24.968 0 0 1 680.6 32.75 Q 683.7 27 689.25 23.85 A 24.107 24.107 0 0 1 698.132 20.95 A 30.733 30.733 0 0 1 702.1 20.7 Q 709.2 20.7 714.55 23.85 Q 719.9 27 722.9 32.6 A 24.972 24.972 0 0 1 725.513 40.555 A 32.923 32.923 0 0 1 725.9 45.7 L 725.9 49.6 L 688 49.6 A 17.057 17.057 0 0 0 688.759 54.274 A 12.996 12.996 0 0 0 692.35 59.95 A 14.31 14.31 0 0 0 701.275 63.748 A 18.875 18.875 0 0 0 702.7 63.8 Q 706.484 63.8 709.054 62.694 A 8.929 8.929 0 0 0 711.45 61.2 Q 714.4 58.6 716 55.2 L 724.5 59.6 Q 723.297 62.007 721.171 64.634 A 41.729 41.729 0 0 1 720.45 65.5 A 19.41 19.41 0 0 1 716.493 68.985 A 25.087 25.087 0 0 1 713.5 70.7 A 18.824 18.824 0 0 1 709.32 72.127 Q 707.335 72.569 705.018 72.721 A 38.49 38.49 0 0 1 702.5 72.8 A 30.284 30.284 0 0 1 695.886 72.108 A 23.677 23.677 0 0 1 689.4 69.65 Q 683.8 66.5 680.65 60.75 A 25.445 25.445 0 0 1 677.815 52.025 A 32.856 32.856 0 0 1 677.5 47.4 Z M 858.9 47.4 L 858.9 46.2 A 32.386 32.386 0 0 1 859.581 39.41 A 24.968 24.968 0 0 1 862 32.75 Q 865.1 27 870.65 23.85 A 24.107 24.107 0 0 1 879.532 20.95 A 30.733 30.733 0 0 1 883.5 20.7 Q 890.6 20.7 895.95 23.85 Q 901.3 27 904.3 32.6 A 24.972 24.972 0 0 1 906.913 40.555 A 32.923 32.923 0 0 1 907.3 45.7 L 907.3 49.6 L 869.4 49.6 A 17.057 17.057 0 0 0 870.159 54.274 A 12.996 12.996 0 0 0 873.75 59.95 A 14.31 14.31 0 0 0 882.675 63.748 A 18.875 18.875 0 0 0 884.1 63.8 Q 887.884 63.8 890.454 62.694 A 8.929 8.929 0 0 0 892.85 61.2 Q 895.8 58.6 897.4 55.2 L 905.9 59.6 Q 904.697 62.007 902.571 64.634 A 41.729 41.729 0 0 1 901.85 65.5 A 19.41 19.41 0 0 1 897.893 68.985 A 25.087 25.087 0 0 1 894.9 70.7 A 18.824 18.824 0 0 1 890.72 72.127 Q 888.735 72.569 886.418 72.721 A 38.49 38.49 0 0 1 883.9 72.8 A 30.284 30.284 0 0 1 877.286 72.108 A 23.677 23.677 0 0 1 870.8 69.65 Q 865.2 66.5 862.05 60.75 A 25.445 25.445 0 0 1 859.215 52.025 A 32.856 32.856 0 0 1 858.9 47.4 Z M 132.1 71.4 L 121.8 71.4 L 121.8 1.4 L 132.1 1.4 L 132.1 71.4 Z M 157.7 71.4 L 147.4 71.4 L 147.4 1.4 L 157.7 1.4 L 157.7 71.4 Z M 562.8 71.4 L 552.5 71.4 L 552.5 22.1 L 562.6 22.1 L 562.6 27.9 L 564.2 27.9 A 9.406 9.406 0 0 1 565.673 25.32 A 7.997 7.997 0 0 1 568.05 23.35 Q 570.452 22.036 573.88 21.913 A 20.057 20.057 0 0 1 574.6 21.9 L 580.5 21.9 L 580.5 31.2 L 574.2 31.2 A 14.893 14.893 0 0 0 570.501 31.637 A 10.974 10.974 0 0 0 566 33.95 Q 562.8 36.7 562.8 42.4 L 562.8 71.4 Z M 627.2 11.2 L 627.2 34 L 644.6 34 A 18.377 18.377 0 0 0 648.126 33.683 Q 651.45 33.032 653.6 31.05 A 9.727 9.727 0 0 0 656.612 25.345 A 14.042 14.042 0 0 0 656.8 23 L 656.8 22.2 A 13.306 13.306 0 0 0 656.375 18.745 A 9.551 9.551 0 0 0 653.65 14.15 A 10.159 10.159 0 0 0 649.67 11.893 Q 648.149 11.417 646.323 11.268 A 21.241 21.241 0 0 0 644.6 11.2 L 627.2 11.2 Z M 502.3 41.7 L 529.6 41.7 A 15.188 15.188 0 0 0 528.825 37.772 A 11.172 11.172 0 0 0 525.6 32.95 A 12.421 12.421 0 0 0 519.849 30.156 A 17.813 17.813 0 0 0 516.2 29.8 A 17.429 17.429 0 0 0 511.997 30.281 A 12.509 12.509 0 0 0 506.75 32.95 A 12.659 12.659 0 0 0 502.975 38.744 A 17.509 17.509 0 0 0 502.3 41.7 Z M 688.1 41.7 L 715.4 41.7 A 15.188 15.188 0 0 0 714.625 37.772 A 11.172 11.172 0 0 0 711.4 32.95 A 12.421 12.421 0 0 0 705.649 30.156 A 17.813 17.813 0 0 0 702 29.8 A 17.429 17.429 0 0 0 697.797 30.281 A 12.509 12.509 0 0 0 692.55 32.95 A 12.659 12.659 0 0 0 688.775 38.744 A 17.509 17.509 0 0 0 688.1 41.7 Z M 869.5 41.7 L 896.8 41.7 A 15.188 15.188 0 0 0 896.025 37.772 A 11.172 11.172 0 0 0 892.8 32.95 A 12.421 12.421 0 0 0 887.049 30.156 A 17.813 17.813 0 0 0 883.4 29.8 A 17.429 17.429 0 0 0 879.197 30.281 A 12.509 12.509 0 0 0 873.95 32.95 A 12.659 12.659 0 0 0 870.175 38.744 A 17.509 17.509 0 0 0 869.5 41.7 Z M 94.7 51 L 94.7 50 L 80.3 50 A 15.755 15.755 0 0 0 77.67 50.207 Q 75.341 50.602 73.7 51.75 A 5.662 5.662 0 0 0 71.261 55.878 A 8.285 8.285 0 0 0 71.2 56.9 A 7.146 7.146 0 0 0 71.663 59.52 A 6.431 6.431 0 0 0 73.8 62.3 Q 75.987 63.983 79.52 64.25 A 18.32 18.32 0 0 0 80.9 64.3 Q 87.1 64.3 90.9 60.75 A 11.696 11.696 0 0 0 94.416 54.193 A 17.114 17.114 0 0 0 94.7 51 Z M 203.6 51 L 203.6 50 L 189.2 50 A 15.755 15.755 0 0 0 186.57 50.207 Q 184.241 50.602 182.6 51.75 A 5.662 5.662 0 0 0 180.161 55.878 A 8.285 8.285 0 0 0 180.1 56.9 A 7.146 7.146 0 0 0 180.563 59.52 A 6.431 6.431 0 0 0 182.7 62.3 Q 184.887 63.983 188.42 64.25 A 18.32 18.32 0 0 0 189.8 64.3 Q 196 64.3 199.8 60.75 A 11.696 11.696 0 0 0 203.316 54.193 A 17.114 17.114 0 0 0 203.6 51 Z M 347.7 51 L 347.7 50 L 333.3 50 A 15.755 15.755 0 0 0 330.67 50.207 Q 328.341 50.602 326.7 51.75 A 5.662 5.662 0 0 0 324.261 55.878 A 8.285 8.285 0 0 0 324.2 56.9 A 7.146 7.146 0 0 0 324.663 59.52 A 6.431 6.431 0 0 0 326.8 62.3 Q 328.987 63.983 332.52 64.25 A 18.32 18.32 0 0 0 333.9 64.3 Q 340.1 64.3 343.9 60.75 A 11.696 11.696 0 0 0 347.416 54.193 A 17.114 17.114 0 0 0 347.7 51 Z" vector-effect="non-scaling-stroke"/></g></svg>